<svg preserveAspectRatio="none" width="100%" height="100%" overflow="visible" style="display: block;" viewBox="0 0 73.1059 69.5281" fill="none" xmlns="http://www.w3.org/2000/svg">
<g id="Group 9">
<path id="Polygon 14" d="M31.4943 30.5865C34.5076 28.3871 38.5969 28.3871 41.6102 30.5865C44.6032 32.7711 45.8449 36.6629 44.7046 40.1885C43.5625 43.7199 40.2637 46.1448 36.5523 46.1448C32.8409 46.1448 29.542 43.7199 28.3999 40.1885C27.2597 36.6629 28.5013 32.7711 31.4943 30.5865Z" fill="var(--fill-0, #F5EBE2)"/>
<path id="Vector 173" d="M27.0315 55.5893C31.7312 49.1207 41.3747 49.1208 46.0744 55.5893L56.2015 69.5281H47.0248C46.0829 69.5281 45.198 69.0772 44.6444 68.3153L36.553 57.1783L28.4614 68.3153C27.9078 69.0772 27.0229 69.5281 26.0811 69.5281H16.9043L27.0315 55.5893Z" fill="var(--fill-0, #F5EBE2)"/>
<path id="Vector 174" d="M9.96763 59.3727C9.67658 58.4769 9.83194 57.496 10.3855 56.734L20.6157 42.6536L4.06297 37.2752C3.16723 36.9842 2.46497 36.2819 2.17392 35.3862L0 28.6956L16.3862 34.0199C23.9904 36.4906 26.9704 45.6621 22.2707 52.1306L12.1435 66.0693L9.96763 59.3727Z" fill="var(--fill-0, #F5EBE2)"/>
<path id="Vector 175" d="M7.51875 18.9574C8.2807 18.4038 9.26163 18.2485 10.1574 18.5395L26.7065 23.9165V6.51586C26.7065 5.57402 27.1574 4.68911 27.9194 4.13551L33.6114 9.15527e-05V17.2294C33.6114 25.2249 25.8096 30.8932 18.2054 28.4224L1.81934 23.0982L7.51875 18.9574Z" fill="var(--fill-0, #F5EBE2)"/>
<path id="Vector 176" d="M54.9011 28.4228C47.2969 30.8935 39.4951 25.2252 39.4951 17.2297L39.4952 0.000457764L45.1941 4.14104C45.9561 4.69464 46.407 5.57955 46.407 6.52139L46.4069 23.9188L62.953 18.5426C63.8488 18.2515 64.8298 18.4069 65.5917 18.9605L71.2873 23.0986L54.9011 28.4228Z" fill="var(--fill-0, #F5EBE2)"/>
<path id="Vector 177" d="M70.9304 35.3911C70.6393 36.2869 69.9371 36.9892 69.0413 37.2802L52.4932 42.6569L62.7206 56.7335C63.2742 57.4954 63.4295 58.4763 63.1385 59.3721L60.9624 66.0693L50.8352 52.1305C46.1355 45.6619 49.1156 36.4905 56.7198 34.0197L73.1059 28.6956L70.9304 35.3911Z" fill="var(--fill-0, #F5EBE2)"/>
</g>
</svg>
