<svg preserveAspectRatio="none" width="100%" height="100%" overflow="visible" style="display: block;" viewBox="0 0 948 856.212" fill="none" xmlns="http://www.w3.org/2000/svg">
<g id="Vector">
<path d="M129.254 769.429C125.48 757.821 127.494 745.109 134.673 735.234L267.331 552.764L52.686 483.065C41.0707 479.293 31.9642 470.192 28.1901 458.585L0 371.881L212.486 440.878C311.093 472.897 349.735 591.752 288.793 675.578L157.47 856.212L129.254 769.429Z" fill="var(--fill-0, #F3FFE4)"/>
<path d="M97.5018 245.671C107.382 238.497 120.102 236.484 131.718 240.255L346.316 309.937V84.4389C346.316 72.2334 352.163 60.7657 362.044 53.5915L435.854 0V223.277C435.854 326.892 334.686 400.348 236.079 368.329L23.5954 299.332L97.5018 245.671Z" fill="var(--fill-0, #F3FFE4)"/>
<path d="M711.918 368.329C613.311 400.348 512.142 326.892 512.143 223.276L512.144 0L586.044 53.6585C595.925 60.8326 601.772 72.3004 601.772 84.5057L601.771 309.962L816.331 240.29C827.946 236.518 840.666 238.532 850.547 245.706L924.403 299.332L711.918 368.329Z" fill="var(--fill-0, #F3FFE4)"/>
<path d="M919.79 458.649C916.016 470.257 906.909 479.358 895.293 483.129L680.708 552.806L813.33 735.227C820.509 745.101 822.523 757.813 818.749 769.421L790.531 856.212L659.208 675.576C598.266 591.75 636.909 472.895 735.516 440.876L948 371.881L919.79 458.649Z" fill="var(--fill-0, #F3FFE4)"/>
</g>
</svg>
