<svg preserveAspectRatio="none" width="100%" height="100%" overflow="visible" style="display: block;" viewBox="0 0 1920 551" fill="none" xmlns="http://www.w3.org/2000/svg">
<g id="Mask group">
<mask id="mask0_0_13" style="mask-type:alpha" maskUnits="userSpaceOnUse" x="0" y="0" width="1920" height="551">
<path id="Rectangle 148" d="M0 20C0 8.95429 8.95431 0 20 0H1900C1911.05 0 1920 8.95431 1920 20V551H0V20Z" fill="var(--fill-0, #EFC5EC)"/>
</mask>
<g mask="url(#mask0_0_13)">
<path id="Vector 175" opacity="0.25" d="M1311.67 1135.36C1323.57 1122.09 1326.58 1102.25 1319.76 1082.01L1193.79 708.028L1578.25 793.685C1599.06 798.321 1618.41 793.209 1630.32 779.934L1719.22 680.765L1338.55 595.951C1161.89 556.592 1040.03 692.518 1097.92 864.362L1222.65 1234.66L1311.67 1135.36Z" fill="var(--fill-0, black)"/>
<path id="Vector 176" opacity="0.25" d="M2246.64 128.697C2229.37 136.423 2210.81 133.367 2196.74 120.477L1936.67 -117.662L1821.52 288.264C1815.28 310.236 1801.37 327.808 1784.1 335.534L1655.04 393.242L1769.06 -8.68589C1821.97 -195.207 1998.86 -274.306 2118.36 -164.881L2375.87 70.9143L2246.64 128.697Z" fill="var(--fill-0, black)"/>
<path id="Vector 177" opacity="0.25" d="M519.615 672.041C513.675 693.991 500.026 711.416 482.898 718.913L166.461 857.43L353.898 1195.66C364.043 1213.96 366.532 1237.79 360.593 1259.74L316.223 1423.71L130.632 1088.81C44.5052 933.4 105.32 708.649 250.722 645.003L564.042 507.855L519.615 672.041Z" fill="var(--fill-0, black)"/>
<path id="Vector 175_2" opacity="0.25" d="M106.288 147.398C107.722 165.33 98.2758 183.956 80.8774 197.502L-240.567 447.761L112.036 586.972C131.121 594.507 143.263 609.577 144.698 627.51L155.413 761.466L-193.716 623.626C-355.736 559.66 -370.424 376.051 -222.721 261.059L95.5585 13.2674L106.288 147.398Z" fill="var(--fill-0, black)"/>
</g>
</g>
</svg>
