<svg preserveAspectRatio="none" width="100%" height="100%" overflow="visible" style="display: block;" viewBox="0 0 2613 1676.67" fill="none" xmlns="http://www.w3.org/2000/svg">
<g id="Group 274">
<path id="Vector 176" d="M511.618 302.841C461.518 161.565 563.907 12.5401 713.803 8.56558L1036.81 0.00104679L962.015 108.859C952.015 123.414 935.649 132.303 917.992 132.772L591.834 141.42L700.848 448.824C706.75 465.466 704.324 483.927 694.324 498.481L619.576 607.274L511.618 302.841Z" fill="var(--fill-0, #EFDDCB)"/>
<path id="Vector 177" d="M593.164 1376.6C673.869 1250.29 607.771 1081.99 462.643 1044.27L149.913 963.001L198.196 1085.94C204.652 1102.37 218.588 1114.73 235.683 1119.17L551.466 1201.24L375.859 1476.09C366.353 1490.97 364.547 1509.5 371.003 1525.94L419.257 1648.8L593.164 1376.6Z" fill="var(--fill-0, #EFDDCB)"/>
<path id="Vector 177_2" d="M2503.89 1050.73C2538.99 1196.46 2421.63 1334 2272.14 1322.33L1950 1297.19L2035.73 1196.72C2047.19 1183.29 2064.39 1176.15 2082 1177.53L2407.29 1202.91L2330.9 885.823C2326.77 868.657 2331.1 850.55 2342.56 837.117L2428.24 736.706L2503.89 1050.73Z" fill="var(--fill-0, #EFDDCB)"/>
<path id="Vector 176_2" d="M2305.81 544.034C2163.26 590.371 2017 484.067 2017 334.118L2017 11L2123.84 88.6528C2138.12 99.0351 2146.57 115.631 2146.57 133.294L2146.57 459.567L2456.76 358.74C2473.55 353.282 2491.94 356.196 2506.23 366.578L2613 444.184L2305.81 544.034Z" fill="var(--fill-0, #EFDDCB)"/>
</g>
</svg>
